<svg width="22" height="14" viewBox="0 0 22 14" fill="#000" xmlns="http://www.w3.org/2000/svg">
<path fill-rule="evenodd" clip-rule="evenodd" d="M7.00002 8C4.66702 8 -0.000976562 9.167 -0.000976562 11.5V13.999H14V11.5C14 9.167 9.334 8 7.00002 8ZM15.001 8C14.71 8 14.384 8.018 14.035 8.054C15.193 8.892 16 10.017 16 11.5V13.999H21.999V11.5C21.999 9.167 17.334 8 15.001 8ZM7.00002 -0.000976562C5.34402 -0.000976562 4.00002 1.34402 4.00002 3.00002C4.00002 4.65602 5.34402 6 7.00002 6C8.65702 6 9.991 4.65602 9.991 3.00002C9.991 1.34402 8.65702 -0.000976562 7.00002 -0.000976562ZM15.001 -0.000976562C13.343 -0.000976562 12 1.34402 12 3.00002C12 4.65602 13.343 6 15.001 6C16.657 6 17.99 4.65602 17.99 3.00002C17.99 1.34402 16.657 -0.000976562 15.001 -0.000976562Z" />
</svg>
